PathFileType	4	(X/Y/Z)	C:\Users\Graham\Documents\MATLAB\MOtoNMS_v2_2\MyData\ElaboratedData\S1\17-05-18\staticElaborations\Static1\Static1\\Static1.trc
DataRate	CameraRate	NumFrames	NumMarkers	Units	OrigDataRate	DataStartFrame
100	100	4	38	mm	100	2
Frame#	Time	V_Sacral			R_ASIS			L_ASIS			R_Knee_Lat			R_Knee_Med			R_Thigh_Upper			R_Thigh_Front			R_Thigh_Rear			L_Knee_Lat			L_Knee_Med			L_Thigh_Upper			L_Thigh_Front			L_Thigh_Rear			R_Ankle_Lat			R_Ankle_Med			R_Shank_Upper			R_Shank_Front			R_Shank_Rear			L_Ankle_Lat			L_Ankle_Med			L_Shank_Upper			L_Shank_Front			L_Shank_Rear			R_Heel			R_MTP1			R_MTP5			L_Heel			L_MTP1			L_MTP5			Clavicle			R_Acromium			L_Acromium			LAJC			RAJC			LHJC			RHJC			LKJC			RKJC		
		X1	Y1	Z1	X2	Y2	Z2	X3	Y3	Z3	X4	Y4	Z4	X5	Y5	Z5	X6	Y6	Z6	X7	Y7	Z7	X8	Y8	Z8	X9	Y9	Z9	X10	Y10	Z10	X11	Y11	Z11	X12	Y12	Z12	X13	Y13	Z13	X14	Y14	Z14	X15	Y15	Z15	X16	Y16	Z16	X17	Y17	Z17	X18	Y18	Z18	X19	Y19	Z19	X20	Y20	Z20	X21	Y21	Z21	X22	Y22	Z22	X23	Y23	Z23	X24	Y24	Z24	X25	Y25	Z25	X26	Y26	Z26	X27	Y27	Z27	X28	Y28	Z28	X29	Y29	Z29	X30	Y30	Z30	X31	Y31	Z31	X32	Y32	Z32	X33	Y33	Z33	X34	Y34	Z34	X35	Y35	Z35	X36	Y36	Z36	X37	Y37	Z37	X38	Y38	Z38	

118	1.170000	-44.688144	1071.291260	4.911375	155.573714	1026.300838	128.786850	155.206317	1034.906413	-103.776557	16.234935	533.461850	173.902767	41.292863	522.597656	65.767460	147.649871	867.406455	170.601645	158.592445	744.067215	136.571685	105.176622	743.420972	196.127804	21.022186	537.620806	-163.829909	28.733291	521.065997	-56.113335	157.226980	862.537366	-144.640739	159.741529	744.655232	-95.211797	121.574876	742.865947	-171.562066	11.818001	111.619120	183.714580	20.736774	107.614331	99.395508	67.556412	329.677136	164.528322	45.093175	217.172408	108.803782	33.923893	213.598018	190.062518	6.059951	99.877866	-175.012498	25.289109	104.860936	-86.503076	60.242589	332.445582	-149.694254	41.579139	214.507155	-105.177244	28.359329	217.215878	-183.655353	-56.130462	53.673785	127.678585	174.690098	62.759400	115.663056	161.889228	57.029949	191.794700	-62.454895	56.925599	-125.385343	174.523137	58.944648	-112.318496	151.690185	51.706354	-197.133121	153.315045	1461.859553	13.684330	109.220165	1499.391733	204.622988	96.987711	1506.535735	-188.525894	15.674530	102.369401	-130.757787	16.277388	109.616726	141.555044	81.517632	966.293711	-73.914024	81.783163	960.074156	94.167821	24.877738	529.343402	-109.971622	28.763899	528.029753	119.835113	
119	1.180000	-44.727140	1071.293307	4.910333	155.571411	1026.290242	128.735390	155.140391	1034.921492	-103.831503	16.228803	533.454028	173.859882	41.277483	522.589749	65.741325	147.623675	867.389197	170.548397	158.568833	744.055518	136.521110	105.165309	743.413426	196.080377	21.002655	537.621988	-163.848329	28.716372	521.069435	-56.134628	157.172113	862.552769	-144.705302	159.718352	744.672179	-95.266541	121.534999	742.879419	-171.610054	11.817075	111.619368	183.711201	20.735120	107.612152	99.392569	67.552517	329.679916	164.516785	45.088989	217.169297	108.799859	33.919513	213.599415	190.054362	6.059917	99.877007	-175.013965	25.287368	104.862679	-86.505749	60.233568	332.446025	-149.705676	41.578126	214.514679	-105.185221	28.354589	217.215295	-183.662557	-56.129877	53.672989	127.677337	174.689280	62.760135	115.660501	161.889837	57.032164	191.793299	-62.455091	56.924455	-125.385048	174.522614	58.946151	-112.318848	151.690049	51.706758	-197.133908	153.318167	1461.875357	13.704413	109.273465	1499.379407	204.659348	96.958035	1506.569894	-188.480794	15.673643	102.369843	-130.759857	16.276097	109.615760	141.551885	81.459546	966.303629	-73.955636	81.771059	960.065528	94.128444	24.859513	529.345711	-109.991479	28.753143	528.021888	119.800603	
120	1.190000	-44.763102	1071.297030	4.913406	155.572320	1026.279765	128.681696	155.074226	1034.934708	-103.885758	16.227876	533.446835	173.809363	41.262519	522.582582	65.717491	147.596959	867.371324	170.496995	158.545328	744.043554	136.472119	105.155224	743.406874	196.035887	20.977739	537.622504	-163.865215	28.695522	521.071771	-56.154455	157.112344	862.564987	-144.768262	159.688606	744.686886	-95.318511	121.487869	742.890438	-171.655566	11.816627	111.619480	183.708172	20.733601	107.609923	99.389984	67.548523	329.682408	164.506565	45.086025	217.167874	108.796121	33.915649	213.600737	190.047437	6.059505	99.875836	-175.015010	25.285979	104.864253	-86.508318	60.221407	332.446971	-149.716223	41.575627	214.521585	-105.194700	28.347757	217.214442	-183.668816	-56.129202	53.672077	127.676421	174.688518	62.761001	115.658045	161.890868	57.034803	191.792139	-62.455370	56.923088	-125.385117	174.522018	58.947660	-112.319301	151.689792	51.707221	-197.134702	153.314289	1461.889016	13.708141	109.328810	1499.366085	204.681220	96.912480	1506.603541	-188.448493	15.672742	102.370044	-130.761664	16.275114	109.614701	141.549078	81.401141	966.313830	-73.995347	81.761130	960.058610	94.089040	24.836631	529.347138	-110.009835	28.745197	528.014708	119.763427	
121	1.200000	-44.795860	1071.301686	4.920010	155.576055	1026.269714	128.626495	155.008506	1034.945399	-103.938787	16.231562	533.440191	173.753746	41.248104	522.576085	65.696096	147.571901	867.353631	170.447496	158.522873	744.031253	136.424259	105.147863	743.401170	195.994144	20.946912	537.622260	-163.880580	28.670377	521.073065	-56.172774	157.047755	862.573485	-144.829153	159.651403	744.698669	-95.368362	121.432645	742.898549	-171.698954	11.816700	111.619461	183.705588	20.732385	107.607689	99.387735	67.544711	329.684500	164.497626	45.084632	217.168268	108.792612	33.912506	213.601913	190.041658	6.058688	99.874363	-175.015649	25.284737	104.865556	-86.510693	60.205746	332.448501	-149.726150	41.570992	214.527400	-105.205733	28.338479	217.213299	-183.674080	-56.128675	53.671132	127.675892	174.687842	62.761904	115.655819	161.892145	57.037680	191.791221	-62.455712	56.921627	-125.385552	174.521332	58.949105	-112.319874	151.689404	51.707749	-197.135494	153.302344	1461.899270	13.696038	109.383760	1499.352457	204.688420	96.851793	1506.634533	-188.429589	15.671713	102.369959	-130.763171	16.274542	109.613575	141.546662	81.343148	966.323534	-74.032653	81.753335	960.053320	94.050242	24.808645	529.347662	-110.026677	28.739833	528.008138	119.724921	
